# xmcd
#
# Track frame offsets:
#	150
#	14337
#	25919
#	36665
#	54879
#	73206
#	94116
#	110393
#	129763
#	144589
#	159756
#	174257
#	189037
#	201931
#	217341
#	256362
#
# Disc length: 3688 seconds
#
# Revision: 1
# Processed by: cddbd v1.5PL3 Copyright (c) Steve Scherf et al.
# Submitted via: audiograbber 1.82.02
#
DISCID=db0e6610
DTITLE=Stag - Stag
DYEAR=1900
DGENRE=Blues
TTITLE0=Proud Mary
TTITLE1=Whole Lotta Love
TTITLE2=From A Different Perspective
TTITLE3=Boogie Man
TTITLE4=Signed Sealed Delivered
TTITLE5=Simultaneous
TTITLE6=Rescue Me
TTITLE7=Blame It On The Boogie
TTITLE8=6345789
TTITLE9=The Womans Out
TTITLE10=Mr Pitiful
TTITLE11=Hold On (I'm Coming)
TTITLE12=Shake A Tailfeather
TTITLE13=Think
TTITLE14=Pick Up The Pieces
TTITLE15=Data track
EXTD=
EXTT0=
EXTT1=
EXTT2=
EXTT3=
EXTT4=
EXTT5=
EXTT6=
EXTT7=
EXTT8=
EXTT9=
EXTT10=
EXTT11=
EXTT12=
EXTT13=
EXTT14=
EXTT15=
PLAYORDER=
